<?xml version="1.0" encoding="UTF-8"?>
<svg id="Camada_2" data-name="Camada 2" xmlns="http://www.w3.org/2000/svg" viewBox="0 0 470.21 470.21">
  <defs>
    <style>
      .cls-1 {
        fill: #1c1c1c;
      }

      .cls-2 {
        fill: #f1e52f;
      }

      .cls-3 {
        fill: #fff;
      }
    </style>
  </defs>
  <g id="Camada_1-2" data-name="Camada 1">
    <g>
      <rect class="cls-2" x="0" y="0" width="470.21" height="470.21" rx="48" ry="48"/>
      <path class="cls-1" d="M401.16,415.74c.05,19.93-22.16,31.84-38.74,20.79l-72.07-48.04-41.38-27.59c-8.37-5.58-19.27-5.58-27.64,0l-41.55,27.7-72,48c-16.56,11.04-38.74-.83-38.74-20.73v-109.32c0-6.61,2.62-12.94,7.29-17.61l40.79-40.82c4.67-4.67,7.29-11.01,7.29-17.61v-89.62c0-6.61,2.62-12.94,7.29-17.61l86.52-86.58c9.79-9.8,25.69-9.73,35.4.15l84.77,86.31c4.56,4.64,7.12,10.89,7.14,17.4l.21,89.22c.02,6.51,2.58,12.76,7.14,17.4l40.88,41.63c4.56,4.64,7.12,10.89,7.14,17.4l.26,109.53Z"/>
      <path class="cls-3" d="M249.83,135.65c.57-2.12,2.75-3.39,4.87-2.82,0,0,0,0,0,0,19.57,5.11,34.86,20.39,39.96,39.96.57,2.12-.69,4.31-2.81,4.87,0,0,0,0,0,0-.34.09-.68.13-1.03.13-1.8,0-3.38-1.21-3.85-2.95-4.38-16.81-17.51-29.94-34.33-34.33-2.12-.57-3.39-2.75-2.82-4.87,0,0,0,0,0,0ZM247.34,161.75c9.65,2.57,15.83,8.76,18.41,18.41.47,1.74,2.04,2.95,3.85,2.95.35,0,.69-.04,1.03-.13,2.12-.57,3.39-2.75,2.82-4.87h0c-3.32-12.41-11.63-20.73-24.04-24.05-2.12-.57-4.31.69-4.88,2.82-.57,2.12.69,4.31,2.82,4.88ZM300.04,226.08c-2.35,17.94-17.65,31.34-35.74,31.31-51.94,0-94.19-42.25-94.19-94.19-.03-18.08,13.36-33.38,31.29-35.74,4.1-.5,8.03,1.77,9.66,5.56l14,31.24c1.26,2.87.98,6.19-.74,8.81-.09.13-.18.26-.28.38l-13.98,16.62c-.17.35-.17.76,0,1.11,5.08,10.4,15.99,21.23,26.53,26.3.36.16.77.15,1.11-.04l16.38-13.93c.12-.1.24-.19.37-.28,2.61-1.74,5.92-2.05,8.81-.81l31.33,14.04c3.74,1.66,5.96,5.57,5.45,9.64v-.02ZM292.15,225.1c.05-.57-.28-1.1-.8-1.33l-31.34-14.04c-.35-.13-.73-.11-1.06.07l-16.37,13.93c-.12.1-.25.19-.37.28-2.72,1.81-6.18,2.06-9.13.66-12.18-5.88-24.32-17.91-30.2-29.97-1.41-2.93-1.18-6.39.6-9.11.09-.13.18-.26.29-.38l13.96-16.64c.16-.35.16-.76,0-1.11l-13.96-31.25c-.19-.51-.67-.86-1.22-.87h-.15c-13.96,1.86-24.37,13.78-24.32,27.86,0,47.54,38.68,86.23,86.23,86.23,14.08.04,26-10.37,27.86-24.33Z"/>
    </g>
  </g>
</svg>