<?xml version="1.0" encoding="UTF-8"?>
<svg id="Camada_2" data-name="Camada 2" xmlns="http://www.w3.org/2000/svg" viewBox="0 0 2389.27 480.21">
  <defs>
    <style>
      .cls-1 {
        fill: #1c1c1c;
      }

      .cls-2, .cls-3 {
        fill: #f1e52f;
      }

      .cls-4 {
        fill: #fff;
      }

      .cls-3 {
        stroke: #1c1c1c;
        stroke-miterlimit: 10;
        stroke-width: 10px;
      }
    </style>
  </defs>
  <g id="Camada_1-2" data-name="Camada 1">
    <g>
      <g>
        <path class="cls-2" d="M602.86,95.5h79.32v380.34h-79.32V95.5ZM724.06,373.37c-16.43-10.84-28.74-26.85-36.95-48.04-8.21-21.18-12.32-48.2-12.32-81.04,0-35.14,4.02-63.88,12.07-86.22,8.04-22.33,20.52-39.33,37.44-50.99,16.91-11.65,38.01-17.49,63.31-17.49,23.65,0,43.68,4.93,60.11,14.78,16.42,9.85,28.98,25.79,37.69,47.79,8.7,22.01,13.06,50.25,13.06,84.74s-4.36,63.06-13.06,85.72c-8.71,22.66-21.52,39.5-38.43,50.5-16.92,11-37.53,16.5-61.83,16.5s-44.67-5.42-61.09-16.26ZM802.64,314c10.67-15.27,16.01-40.15,16.01-74.64s-5.34-58.87-16.01-74.15c-10.68-15.27-27.34-22.91-50.01-22.91-16.1,0-29.31,3.45-39.66,10.35-10.35,6.9-18.07,17.41-23.16,31.53-5.1,14.13-7.64,32.69-7.64,55.67s2.54,41.14,7.64,55.42c5.09,14.29,12.89,24.8,23.4,31.53,10.51,6.74,23.65,10.1,39.41,10.1,22.66,0,39.33-7.64,50.01-22.91Z"/>
        <path class="cls-2" d="M961.28,379.03c-12.65-6.07-22.17-14.61-28.57-25.62-6.41-11-9.61-24.06-9.61-39.17s4.35-28.24,13.06-39.41c8.7-11.16,22.91-21.43,42.62-30.79,19.71-9.36,47.62-19.46,83.75-30.3l67.99-20.2v46.31l-61.58,18.72c-18.4,5.59-32.19,10.52-41.38,14.78-9.2,4.27-15.69,9.2-19.46,14.78-3.78,5.59-5.67,12.49-5.67,20.69,0,9.2,3.2,16.34,9.61,21.43,6.4,5.1,16.5,7.64,30.3,7.64,16.09,0,30.21-3.86,42.37-11.58,12.15-7.71,21.43-18.06,27.84-31.04,6.4-12.97,9.61-27.5,9.61-43.6v-56.66c0-13.79-1.89-24.71-5.67-32.76-3.78-8.04-9.61-13.87-17.49-17.49-7.88-3.61-18.72-5.42-32.52-5.42-21.02,0-36.54,5.59-46.56,16.75-10.02,11.17-16.34,30.22-18.97,57.15h-71.44c2.29-28.24,8.7-51.48,19.21-69.71,10.51-18.23,25.78-31.94,45.82-41.14,20.03-9.19,45.82-13.79,77.35-13.79s55.34,3.94,74.39,11.82c19.04,7.88,32.84,19.46,41.38,34.73,8.54,15.27,12.81,34.24,12.81,56.9v104.94l4.43,86.71h-74.89v-120.21l-1.97.49c-2.3,25.62-7.64,47.71-16.01,66.26-8.38,18.56-21.02,32.85-37.93,42.86-16.92,10.02-38.67,15.03-65.28,15.03-19.05,0-34.9-3.04-47.54-9.11Z"/>
        <path class="cls-2" d="M1285.7,361.79c-16.75-10.01-29.73-25.62-38.92-46.8-9.2-21.19-13.79-48.53-13.79-82.03s4.6-60.27,13.79-81.29c9.19-21.02,22.33-36.62,39.41-46.8,17.07-10.18,37.77-15.27,62.08-15.27s44.42,5.26,60.35,15.77c15.93,10.51,27.59,25.62,34.98,45.33s11.08,45,11.08,75.87c0,33.5-3.7,61.09-11.08,82.77-7.39,21.68-19.21,38.35-35.47,50.01-16.26,11.66-36.87,17.49-61.83,17.49-23.65,0-43.85-5-60.6-15.03ZM1314.03,472.39c-18.56-4.6-33.99-12.73-46.31-24.39-12.32-11.66-20.45-27.18-24.39-46.56h74.39c3.61,11.82,10.35,20.11,20.2,24.88,9.85,4.76,23.32,7.14,40.4,7.14s29.64-1.81,39.66-5.42c10.01-3.62,17.57-9.61,22.66-17.98,5.09-8.38,7.64-20.12,7.64-35.23v-188.69l7.39-90.65h71.44v268.5c0,25.94-5.34,47.46-16.01,64.54-10.68,17.07-26.77,29.81-48.28,38.18-21.52,8.38-49.35,12.56-83.51,12.56-24.96,0-46.73-2.3-65.28-6.9ZM1417,319.17c10.35-6.9,18.06-17.41,23.16-31.53,5.09-14.12,7.64-33.01,7.64-56.66,0-22-2.63-39.98-7.88-53.95-5.26-13.96-13.14-24.22-23.65-30.79-10.52-6.57-22.99-9.85-37.44-9.85-21.68,0-38.02,7.39-49.02,22.17-11.01,14.78-16.5,38.92-16.5,72.42,0,35.15,5.42,60.35,16.26,75.62,10.84,15.27,27.26,22.91,49.27,22.91,15.1,0,27.83-3.45,38.18-10.35Z"/>
        <path class="cls-2" d="M1620.71,373.12c-21.68-11-37.44-27.34-47.3-49.02-9.85-21.68-14.78-49.27-14.78-82.77s5.09-62.4,15.27-84.74c10.18-22.33,26.11-39.08,47.79-50.25,21.68-11.16,49.43-16.75,83.26-16.75s59.12,4.52,79.81,13.55c20.69,9.04,36.21,22.66,46.56,40.89s16.5,41.47,18.47,69.71h-73.9c-.99-17.41-3.94-31.2-8.87-41.38-4.93-10.18-12.24-17.49-21.92-21.92-9.69-4.43-22.09-6.65-37.2-6.65-16.43,0-29.73,3.04-39.91,9.11-10.18,6.08-17.57,16.18-22.17,30.3-4.6,14.13-6.9,33.5-6.9,58.13s2.29,42.37,6.9,56.16c4.6,13.79,11.82,23.57,21.68,29.31,9.85,5.75,23.65,8.62,41.38,8.62,15.43,0,27.75-2.38,36.95-7.14,9.19-4.76,16.17-12.15,20.94-22.17,4.76-10.02,7.8-23.73,9.11-41.14h74.39c-2.3,30.22-9.36,54.36-21.18,72.42-11.82,18.07-27.84,31.28-48.04,39.66-20.2,8.38-45.25,12.56-75.13,12.56-35.15,0-63.55-5.5-85.23-16.5Z"/>
        <path class="cls-2" d="M1911.14,379.03c-12.65-6.07-22.17-14.61-28.57-25.62-6.41-11-9.61-24.06-9.61-39.17s4.35-28.24,13.06-39.41c8.7-11.16,22.91-21.43,42.62-30.79,19.71-9.36,47.62-19.46,83.75-30.3l67.99-20.2v46.31l-61.58,18.72c-18.4,5.59-32.19,10.52-41.38,14.78-9.2,4.27-15.69,9.2-19.46,14.78-3.78,5.59-5.67,12.49-5.67,20.69,0,9.2,3.2,16.34,9.61,21.43,6.4,5.1,16.5,7.64,30.3,7.64,16.09,0,30.21-3.86,42.37-11.58,12.15-7.71,21.43-18.06,27.84-31.04,6.4-12.97,9.61-27.5,9.61-43.6v-56.66c0-13.79-1.89-24.71-5.67-32.76-3.78-8.04-9.61-13.87-17.49-17.49-7.88-3.61-18.72-5.42-32.52-5.42-21.02,0-36.54,5.59-46.56,16.75-10.02,11.17-16.34,30.22-18.97,57.15h-71.44c2.29-28.24,8.7-51.48,19.21-69.71,10.51-18.23,25.78-31.94,45.82-41.14,20.03-9.19,45.82-13.79,77.35-13.79s55.34,3.94,74.39,11.82c19.04,7.88,32.84,19.46,41.38,34.73,8.54,15.27,12.81,34.24,12.81,56.9v104.94l4.43,86.71h-74.89v-120.21l-1.97.49c-2.3,25.62-7.64,47.71-16.01,66.26-8.38,18.56-21.02,32.85-37.93,42.86-16.92,10.02-38.67,15.03-65.28,15.03-19.05,0-34.9-3.04-47.54-9.11Z"/>
        <path class="cls-2" d="M2191.22,9.28h79.32v374.43h-79.32V9.28Z"/>
        <path class="cls-2" d="M2309.95,9.28h79.32v374.43h-79.32V9.28Z"/>
      </g>
      <g>
        <rect class="cls-3" x="5" y="5" width="470.21" height="470.21" rx="48" ry="48"/>
        <path class="cls-1" d="M406.16,420.74c.05,19.93-22.16,31.84-38.74,20.79l-72.07-48.04-41.38-27.59c-8.37-5.58-19.27-5.58-27.64,0l-41.55,27.7-72,48c-16.56,11.04-38.74-.83-38.74-20.73v-109.32c0-6.61,2.62-12.94,7.29-17.61l40.79-40.82c4.67-4.67,7.29-11.01,7.29-17.61v-89.62c0-6.61,2.62-12.94,7.29-17.61l86.52-86.58c9.79-9.8,25.69-9.73,35.4.15l84.77,86.31c4.56,4.64,7.12,10.89,7.14,17.4l.21,89.22c.02,6.51,2.58,12.76,7.14,17.4l40.88,41.63c4.56,4.64,7.12,10.89,7.14,17.4l.26,109.53Z"/>
        <path class="cls-4" d="M254.83,140.65c.57-2.12,2.75-3.39,4.87-2.82,0,0,0,0,0,0,19.57,5.11,34.86,20.39,39.96,39.96.57,2.12-.69,4.31-2.81,4.87,0,0,0,0,0,0-.34.09-.68.13-1.03.13-1.8,0-3.38-1.21-3.85-2.95-4.38-16.81-17.51-29.94-34.33-34.33-2.12-.57-3.39-2.75-2.82-4.87,0,0,0,0,0,0ZM252.34,166.75c9.65,2.57,15.83,8.76,18.41,18.41.47,1.74,2.04,2.95,3.85,2.95.35,0,.69-.04,1.03-.13,2.12-.57,3.39-2.75,2.82-4.87h0c-3.32-12.41-11.63-20.73-24.04-24.05-2.12-.57-4.31.69-4.88,2.82-.57,2.12.69,4.31,2.82,4.88ZM305.04,231.08c-2.35,17.94-17.65,31.34-35.74,31.31-51.94,0-94.19-42.25-94.19-94.19-.03-18.08,13.36-33.38,31.29-35.74,4.1-.5,8.03,1.77,9.66,5.56l14,31.24c1.26,2.87.98,6.19-.74,8.81-.09.13-.18.26-.28.38l-13.98,16.62c-.17.35-.17.76,0,1.11,5.08,10.4,15.99,21.23,26.53,26.3.36.16.77.15,1.11-.04l16.38-13.93c.12-.1.24-.19.37-.28,2.61-1.74,5.92-2.05,8.81-.81l31.33,14.04c3.74,1.66,5.96,5.57,5.45,9.64v-.02ZM297.15,230.1c.05-.57-.28-1.1-.8-1.33l-31.34-14.04c-.35-.13-.73-.11-1.06.07l-16.37,13.93c-.12.1-.25.19-.37.28-2.72,1.81-6.18,2.06-9.13.66-12.18-5.88-24.32-17.91-30.2-29.97-1.41-2.93-1.18-6.39.6-9.11.09-.13.18-.26.29-.38l13.96-16.64c.16-.35.16-.76,0-1.11l-13.96-31.25c-.19-.51-.67-.86-1.22-.87h-.15c-13.96,1.86-24.37,13.78-24.32,27.86,0,47.54,38.68,86.23,86.23,86.23,14.08.04,26-10.37,27.86-24.33Z"/>
      </g>
    </g>
  </g>
</svg>